<svg width="1100" height="600" xmlns="http://www.w3.org/2000/svg">
	<rect width="100%" height="100%" style="fill:rgb(255,255,255);stroke-width:10;stroke:rgb(0,0,0)" />
	<line x1="550" y1="300" x2="550" y2="186" style="stroke:green;stroke-width:1" />
	<line x1="550" y1="186" x2="664" y2="186" style="stroke:green;stroke-width:1" />
	<line x1="664" y1="186" x2="664" y2="300" style="stroke:green;stroke-width:1" />
	<line x1="664" y1="300" x2="550" y2="300" style="stroke:green;stroke-width:1" />
	<line x1="550" y1="300" x2="568.40674" y2="195.61038" style="stroke:orange;stroke-width:1" />
	<line x1="568.40674" y1="195.61038" x2="672.7964" y2="214.0171" style="stroke:orange;stroke-width:1" />
	<line x1="672.7964" y1="214.0171" x2="654.38965" y2="318.40674" style="stroke:orange;stroke-width:1" />
	<line x1="654.38965" y1="318.40674" x2="550" y2="300" style="stroke:orange;stroke-width:1" />
	<line x1="550" y1="300" x2="554.78827" y2="286.8443" style="stroke:orange;stroke-width:1" />
	<line x1="554.78827" y1="286.8443" x2="567.944" y2="291.6326" style="stroke:orange;stroke-width:1" />
	<line x1="567.944" y1="291.6326" x2="563.1557" y2="304.7883" style="stroke:orange;stroke-width:1" />
	<line x1="563.1557" y1="304.7883" x2="550" y2="300" style="stroke:orange;stroke-width:1" />
	<line x1="550" y1="300" x2="637.50006" y2="148.4456" style="stroke:yellow;stroke-width:1" />
	<line x1="637.50006" y1="148.4456" x2="789.05444" y2="235.9457" style="stroke:yellow;stroke-width:1" />
	<line x1="789.05444" y1="235.9457" x2="701.5544" y2="387.5001" style="stroke:yellow;stroke-width:1" />
	<line x1="701.5544" y1="387.5001" x2="550" y2="300" style="stroke:yellow;stroke-width:1" />
	<line x1="550" y1="300" x2="594.9952" y2="246.37692" style="stroke:green;stroke-width:1" />
	<line x1="594.9952" y1="246.37692" x2="648.6182" y2="291.3721" style="stroke:green;stroke-width:1" />
	<line x1="648.6182" y1="291.3721" x2="603.62305" y2="344.99518" style="stroke:green;stroke-width:1" />
	<line x1="603.62305" y1="344.99518" x2="550" y2="300" style="stroke:green;stroke-width:1" />
	<line x1="550" y1="300" x2="584.47205" y2="271.07462" style="stroke:yellow;stroke-width:1" />
	<line x1="584.47205" y1="271.07462" x2="613.39746" y2="305.54666" style="stroke:yellow;stroke-width:1" />
	<line x1="613.39746" y1="305.54666" x2="578.9254" y2="334.47205" style="stroke:yellow;stroke-width:1" />
	<line x1="578.9254" y1="334.47205" x2="550" y2="300" style="stroke:yellow;stroke-width:1" />
	<line x1="550" y1="300" x2="603.6936" y2="269.0001" style="stroke:orange;stroke-width:1" />
	<line x1="603.6936" y1="269.0001" x2="634.69354" y2="322.69373" style="stroke:orange;stroke-width:1" />
	<line x1="634.69354" y1="322.69373" x2="580.9999" y2="353.69363" style="stroke:orange;stroke-width:1" />
	<line x1="580.9999" y1="353.69363" x2="550" y2="300" style="stroke:orange;stroke-width:1" />
	<line x1="550" y1="300" x2="736.05927" y2="232.28041" style="stroke:blue;stroke-width:1" />
	<line x1="736.05927" y1="232.28041" x2="803.7789" y2="418.3397" style="stroke:blue;stroke-width:1" />
	<line x1="803.7789" y1="418.3397" x2="617.7196" y2="486.05927" style="stroke:blue;stroke-width:1" />
	<line x1="617.7196" y1="486.05927" x2="550.00006" y2="299.99997" style="stroke:blue;stroke-width:1" />
	<line x1="550.00006" y1="299.99997" x2="695.7517" y2="274.30038" style="stroke: red;stroke-width:1" />
	<line x1="695.7517" y1="274.30038" x2="721.4513" y2="420.052" style="stroke: red;stroke-width:1" />
	<line x1="721.4513" y1="420.052" x2="575.6997" y2="445.75156" style="stroke: red;stroke-width:1" />
	<line x1="575.6997" y1="445.75156" x2="550.0001" y2="299.99994" style="stroke: red;stroke-width:1" />
	<line x1="550.0001" y1="299.99994" x2="567.0001" y2="299.99997" style="stroke:blue;stroke-width:1" />
	<line x1="567.0001" y1="299.99997" x2="567.00006" y2="316.99997" style="stroke:blue;stroke-width:1" />
	<line x1="567.00006" y1="316.99997" x2="550.00006" y2="316.99994" style="stroke:blue;stroke-width:1" />
	<line x1="550.00006" y1="316.99994" x2="550.0001" y2="299.99994" style="stroke:blue;stroke-width:1" />
	<line x1="550.0001" y1="299.99994" x2="735.1439" y2="332.64627" style="stroke:violet;stroke-width:1" />
	<line x1="735.1439" y1="332.64627" x2="702.49756" y2="517.79004" style="stroke:violet;stroke-width:1" />
	<line x1="702.49756" y1="517.79004" x2="517.35376" y2="485.14368" style="stroke:violet;stroke-width:1" />
	<line x1="517.35376" y1="485.14368" x2="550.0001" y2="299.9999" style="stroke:violet;stroke-width:1" />
	<line x1="550.0001" y1="299.9999" x2="578.19086" y2="310.2606" style="stroke:orange;stroke-width:1" />
	<line x1="578.19086" y1="310.2606" x2="567.9302" y2="338.45132" style="stroke:orange;stroke-width:1" />
	<line x1="567.9302" y1="338.45132" x2="539.73944" y2="328.19064" style="stroke:orange;stroke-width:1" />
	<line x1="539.73944" y1="328.19064" x2="550.0001" y2="299.9999" style="stroke:orange;stroke-width:1" />
	<line x1="550.0001" y1="299.9999" x2="711.08057" y2="393.00043" style="stroke:blue;stroke-width:1" />
	<line x1="711.08057" y1="393.00043" x2="618.08" y2="554.0808" style="stroke:blue;stroke-width:1" />
	<line x1="618.08" y1="554.0808" x2="456.99963" y2="461.08023" style="stroke:blue;stroke-width:1" />
	<line x1="456.99963" y1="461.08023" x2="550.00024" y2="299.99985" style="stroke:blue;stroke-width:1" />
	<line x1="550.00024" y1="299.99985" x2="684.8236" y2="413.13098" style="stroke:green;stroke-width:1" />
	<line x1="684.8236" y1="413.13098" x2="571.6925" y2="547.95435" style="stroke:green;stroke-width:1" />
	<line x1="571.6925" y1="547.95435" x2="436.86914" y2="434.82318" style="stroke:green;stroke-width:1" />
	<line x1="436.86914" y1="434.82318" x2="550.0003" y2="299.99982" style="stroke:green;stroke-width:1" />
	<line x1="550.0003" y1="299.99982" x2="620.7066" y2="384.265" style="stroke:violet;stroke-width:1" />
	<line x1="620.7066" y1="384.265" x2="536.4414" y2="454.97128" style="stroke:violet;stroke-width:1" />
	<line x1="536.4414" y1="454.97128" x2="465.73514" y2="370.7061" style="stroke:violet;stroke-width:1" />
	<line x1="465.73514" y1="370.7061" x2="550.00037" y2="299.99982" style="stroke:violet;stroke-width:1" />
	<line x1="550.00037" y1="299.99982" x2="573.5002" y2="340.70313" style="stroke:green;stroke-width:1" />
	<line x1="573.5002" y1="340.70313" x2="532.7969" y2="364.20294" style="stroke:green;stroke-width:1" />
	<line x1="532.7969" y1="364.20294" x2="509.29706" y2="323.49963" style="stroke:green;stroke-width:1" />
	<line x1="509.29706" y1="323.49963" x2="550.00037" y2="299.99985" style="stroke:green;stroke-width:1" />
	<line x1="550.00037" y1="299.99985" x2="553.7625" y2="310.3365" style="stroke:blue;stroke-width:1" />
	<line x1="553.7625" y1="310.3365" x2="543.4259" y2="314.09866" style="stroke:blue;stroke-width:1" />
	<line x1="543.4259" y1="314.09866" x2="539.66376" y2="303.76202" style="stroke:blue;stroke-width:1" />
	<line x1="539.66376" y1="303.76202" x2="550.00037" y2="299.99985" style="stroke:blue;stroke-width:1" />
	<line x1="550.00037" y1="299.99985" x2="559.72437" y2="355.14914" style="stroke: red;stroke-width:1" />
	<line x1="559.72437" y1="355.14914" x2="504.57507" y2="364.87314" style="stroke: red;stroke-width:1" />
	<line x1="504.57507" y1="364.87314" x2="494.85107" y2="309.72385" style="stroke: red;stroke-width:1" />
	<line x1="494.85107" y1="309.72385" x2="550.00037" y2="299.99985" style="stroke: red;stroke-width:1" />
	<line x1="550.00037" y1="299.99985" x2="549.9997" y2="418.99985" style="stroke:green;stroke-width:1" />
	<line x1="549.9997" y1="418.99985" x2="430.9997" y2="418.99918" style="stroke:green;stroke-width:1" />
	<line x1="430.9997" y1="418.99918" x2="431.00037" y2="299.99918" style="stroke:green;stroke-width:1" />
	<line x1="431.00037" y1="299.99918" x2="550.00037" y2="299.99985" style="stroke:green;stroke-width:1" />
	<line x1="550.00037" y1="299.99985" x2="532.635" y2="398.48053" style="stroke:yellow;stroke-width:1" />
	<line x1="532.635" y1="398.48053" x2="434.15433" y2="381.11514" style="stroke:yellow;stroke-width:1" />
	<line x1="434.15433" y1="381.11514" x2="451.5197" y2="282.63446" style="stroke:yellow;stroke-width:1" />
	<line x1="451.5197" y1="282.63446" x2="550.00037" y2="299.99988" style="stroke:yellow;stroke-width:1" />
	<line x1="550.00037" y1="299.99988" x2="501.77475" y2="432.49625" style="stroke:orange;stroke-width:1" />
	<line x1="501.77475" y1="432.49625" x2="369.27838" y2="384.27063" style="stroke:orange;stroke-width:1" />
	<line x1="369.27838" y1="384.27063" x2="417.50403" y2="251.77426" style="stroke:orange;stroke-width:1" />
	<line x1="417.50403" y1="251.77426" x2="550.00037" y2="299.9999" style="stroke:orange;stroke-width:1" />
	<line x1="550.00037" y1="299.9999" x2="532.5002" y2="330.3107" style="stroke:yellow;stroke-width:1" />
	<line x1="532.5002" y1="330.3107" x2="502.1894" y2="312.81052" style="stroke:yellow;stroke-width:1" />
	<line x1="502.1894" y1="312.81052" x2="519.6896" y2="282.49976" style="stroke:yellow;stroke-width:1" />
	<line x1="519.6896" y1="282.49976" x2="550.00037" y2="299.99994" style="stroke:yellow;stroke-width:1" />
	<line x1="550.00037" y1="299.99994" x2="487.64948" y2="374.30585" style="stroke:orange;stroke-width:1" />
	<line x1="487.64948" y1="374.30585" x2="413.3436" y2="311.95493" style="stroke:orange;stroke-width:1" />
	<line x1="413.3436" y1="311.95493" x2="475.69452" y2="237.64905" style="stroke:orange;stroke-width:1" />
	<line x1="475.69452" y1="237.64905" x2="550.00037" y2="299.99997" style="stroke:orange;stroke-width:1" />
	<line x1="550.00037" y1="299.99997" x2="504.0374" y2="338.5669" style="stroke: red;stroke-width:1" />
	<line x1="504.0374" y1="338.5669" x2="465.4705" y2="292.60394" style="stroke: red;stroke-width:1" />
	<line x1="465.4705" y1="292.60394" x2="511.43344" y2="254.03703" style="stroke: red;stroke-width:1" />
	<line x1="511.43344" y1="254.03703" x2="550.00037" y2="300" style="stroke: red;stroke-width:1" />
	<line x1="550.00037" y1="300" x2="412.30173" y2="379.49896" style="stroke:yellow;stroke-width:1" />
	<line x1="412.30173" y1="379.49896" x2="332.8028" y2="241.80031" style="stroke:yellow;stroke-width:1" />
	<line x1="332.8028" y1="241.80031" x2="470.50146" y2="162.30139" style="stroke:yellow;stroke-width:1" />
	<line x1="470.50146" y1="162.30139" x2="550.00037" y2="300.00006" style="stroke:yellow;stroke-width:1" />
	<line x1="550.00037" y1="300.00006" x2="429.71936" y2="343.77768" style="stroke:yellow;stroke-width:1" />
	<line x1="429.71936" y1="343.77768" x2="385.94177" y2="223.49667" style="stroke:yellow;stroke-width:1" />
	<line x1="385.94177" y1="223.49667" x2="506.22278" y2="179.71909" style="stroke:yellow;stroke-width:1" />
	<line x1="506.22278" y1="179.71909" x2="550.00037" y2="300.00012" style="stroke:yellow;stroke-width:1" />
	<line x1="550.00037" y1="300.00012" x2="422.95996" y2="322.39966" style="stroke:green;stroke-width:1" />
	<line x1="422.95996" y1="322.39966" x2="400.56046" y2="195.35925" style="stroke:green;stroke-width:1" />
	<line x1="400.56046" y1="195.35925" x2="527.6008" y2="172.95973" style="stroke:green;stroke-width:1" />
	<line x1="527.6008" y1="172.95973" x2="550.00037" y2="300.00012" style="stroke:green;stroke-width:1" />
	<line x1="550.00037" y1="300.00012" x2="469.00037" y2="299.99942" style="stroke:orange;stroke-width:1" />
	<line x1="469.00037" y1="299.99942" x2="469.00107" y2="218.99942" style="stroke:orange;stroke-width:1" />
	<line x1="469.00107" y1="218.99942" x2="550.0011" y2="219.00014" style="stroke:orange;stroke-width:1" />
	<line x1="550.0011" y1="219.00014" x2="550.00037" y2="300.00012" style="stroke:orange;stroke-width:1" />
	<line x1="550.00037" y1="300.00012" x2="475.1551" y2="286.8022" style="stroke:green;stroke-width:1" />
	<line x1="475.1551" y1="286.8022" x2="488.35303" y2="211.95691" style="stroke:green;stroke-width:1" />
	<line x1="488.35303" y1="211.95691" x2="563.1983" y2="225.15485" style="stroke:green;stroke-width:1" />
	<line x1="563.1983" y1="225.15485" x2="550.00037" y2="300.00012" style="stroke:green;stroke-width:1" />
	<line x1="550.00037" y1="300.00012" x2="451.33298" y2="264.0871" style="stroke:violet;stroke-width:1" />
	<line x1="451.33298" y1="264.0871" x2="487.246" y2="165.41971" style="stroke:violet;stroke-width:1" />
	<line x1="487.246" y1="165.41971" x2="585.9134" y2="201.33273" style="stroke:violet;stroke-width:1" />
	<line x1="585.9134" y1="201.33273" x2="550.00037" y2="300.00012" style="stroke:violet;stroke-width:1" />
	<line x1="550.00037" y1="300.00012" x2="460.80023" y2="248.49928" style="stroke:orange;stroke-width:1" />
	<line x1="460.80023" y1="248.49928" x2="512.3011" y2="159.29915" style="stroke:orange;stroke-width:1" />
	<line x1="512.3011" y1="159.29915" x2="601.5012" y2="210.79999" style="stroke:orange;stroke-width:1" />
	<line x1="601.5012" y1="210.79999" x2="550.00037" y2="300.00012" style="stroke:orange;stroke-width:1" />
	<line x1="550.00037" y1="300.00012" x2="426.6682" y2="196.51012" style="stroke:yellow;stroke-width:1" />
	<line x1="426.6682" y1="196.51012" x2="530.1582" y2="73.17798" style="stroke:yellow;stroke-width:1" />
	<line x1="530.1582" y1="73.17798" x2="653.49036" y2="176.668" style="stroke:yellow;stroke-width:1" />
	<line x1="653.49036" y1="176.668" x2="550.00037" y2="300.00012" style="stroke:yellow;stroke-width:1" />
	<line x1="550.00037" y1="300.00012" x2="456.15448" y2="188.15672" style="stroke:violet;stroke-width:1" />
	<line x1="456.15448" y1="188.15672" x2="567.99786" y2="94.31082" style="stroke:violet;stroke-width:1" />
	<line x1="567.99786" y1="94.31082" x2="661.84375" y2="206.15424" style="stroke:violet;stroke-width:1" />
	<line x1="661.84375" y1="206.15424" x2="550.0003" y2="300.00012" style="stroke:violet;stroke-width:1" />
	<line x1="550.0003" y1="300.00012" x2="516.5009" y2="241.97607" style="stroke:yellow;stroke-width:1" />
	<line x1="516.5009" y1="241.97607" x2="574.52496" y2="208.47667" style="stroke:yellow;stroke-width:1" />
	<line x1="574.52496" y1="208.47667" x2="608.02435" y2="266.50073" style="stroke:yellow;stroke-width:1" />
	<line x1="608.02435" y1="266.50073" x2="550.0003" y2="300.00012" style="stroke:yellow;stroke-width:1" />
	<line x1="550.0003" y1="300.00012" x2="492.5426" y2="142.13115" style="stroke:blue;stroke-width:1" />
	<line x1="492.5426" y1="142.13115" x2="650.41156" y2="84.67345" style="stroke:blue;stroke-width:1" />
	<line x1="650.41156" y1="84.67345" x2="707.86926" y2="242.54243" style="stroke:blue;stroke-width:1" />
	<line x1="707.86926" y1="242.54243" x2="550.00024" y2="300.0001" style="stroke:blue;stroke-width:1" />
	<line x1="550.00024" y1="300.0001" x2="524.99646" y2="158.1875" style="stroke: red;stroke-width:1" />
	<line x1="524.99646" y1="158.1875" x2="666.8091" y2="133.18372" style="stroke: red;stroke-width:1" />
	<line x1="666.8091" y1="133.18372" x2="691.81287" y2="274.9963" style="stroke: red;stroke-width:1" />
	<line x1="691.81287" y1="274.9963" x2="550.00024" y2="300.00006" style="stroke: red;stroke-width:1" />
</svg>