<svg width="1100" height="600" xmlns="http://www.w3.org/2000/svg">
	<rect width="100%" height="100%" style="fill:rgb(255,255,255);stroke-width:10;stroke:rgb(0,0,0)" />
	<line x1="550" y1="300" x2="550" y2="180" style="stroke: red;stroke-width:1" />
	<line x1="550" y1="180" x2="668.17694" y2="200.83778" style="stroke:blue;stroke-width:1" />
	<line x1="668.17694" y1="200.83778" x2="627.1345" y2="313.6009" style="stroke:blue;stroke-width:1" />
	<line x1="627.1345" y1="313.6009" x2="523.2115" y2="253.60089" style="stroke:yellow;stroke-width:1" />
	<line x1="523.2115" y1="253.60089" x2="600.346" y2="161.67557" style="stroke:blue;stroke-width:1" />
	<line x1="600.346" y1="161.67557" x2="677.4805" y2="253.6009" style="stroke:yellow;stroke-width:1" />
	<line x1="677.4805" y1="253.6009" x2="573.5575" y2="313.60092" style="stroke:blue;stroke-width:1" />
	<line x1="573.5575" y1="313.60092" x2="532.5151" y2="200.8378" style="stroke:blue;stroke-width:1" />
	<line x1="532.5151" y1="200.8378" x2="650.692" y2="180.00003" style="stroke: red;stroke-width:1" />
	<line x1="650.692" y1="180.00003" x2="650.692" y2="300.00003" style="stroke:yellow;stroke-width:1" />
	<line x1="650.692" y1="300.00003" x2="532.5151" y2="279.1622" style="stroke:yellow;stroke-width:1" />
	<line x1="532.5151" y1="279.1622" x2="573.55756" y2="166.39911" style="stroke:blue;stroke-width:1" />
	<line x1="573.55756" y1="166.39911" x2="677.4806" y2="226.39914" style="stroke:yellow;stroke-width:1" />
	<line x1="677.4806" y1="226.39914" x2="600.346" y2="318.32443" style="stroke:yellow;stroke-width:1" />
	<line x1="600.346" y1="318.32443" x2="523.21155" y2="226.39905" style="stroke: red;stroke-width:1" />
	<line x1="523.21155" y1="226.39905" x2="627.13464" y2="166.39912" style="stroke:blue;stroke-width:1" />
	<line x1="627.13464" y1="166.39912" x2="668.177" y2="279.16226" style="stroke: red;stroke-width:1" />
	<line x1="668.177" y1="279.16226" x2="550.00006" y2="299.99994" style="stroke:blue;stroke-width:1" />
</svg>