<svg width="1100" height="600" xmlns="http://www.w3.org/2000/svg">
	<rect width="100%" height="100%" style="fill:rgb(255,255,255);stroke-width:10;stroke:rgb(0,0,0)" />
	<text x="550" y="300" fill="black" font-size="0" font-family="Arial" transform="rotate(-90 550,300)">Logo</text>
	<text x="550.0058" y="299.96716" fill="black" font-size="1" font-family="Arial" transform="rotate(-80 550.0058,299.96716)">Logo</text>
	<text x="550.0456" y="299.8747" fill="black" font-size="2" font-family="Arial" transform="rotate(-70 550.0456,299.8747)">Logo</text>
	<text x="550.15" y="299.7402" fill="black" font-size="3" font-family="Arial" transform="rotate(-60 550.15,299.7402)">Logo</text>
	<text x="550.34283" y="299.59143" fill="black" font-size="4" font-family="Arial" transform="rotate(-50 550.34283,299.59143)">Logo</text>
	<text x="550.63837" y="299.46436" fill="black" font-size="5" font-family="Arial" transform="rotate(-40 550.63837,299.46436)">Logo</text>
	<text x="551.03925" y="299.4" fill="black" font-size="6" font-family="Arial" transform="rotate(-30 551.03925,299.4)">Logo</text>
	<text x="551.53485" y="299.44138" fill="black" font-size="7" font-family="Arial" transform="rotate(-20 551.53485,299.44138)">Logo</text>
	<text x="552.10095" y="299.62955" fill="black" font-size="8" font-family="Arial" transform="rotate(-10 552.10095,299.62955)">Logo</text>
	<text x="552.7" y="300" fill="black" font-size="9" font-family="Arial" transform="rotate(-0 552.7,300)">Logo</text>
	<text x="553.2827" y="300.57883" fill="black" font-size="10" font-family="Arial" transform="rotate(10 553.2827,300.57883)">Logo</text>
	<text x="553.7901" y="301.3795" fill="black" font-size="11" font-family="Arial" transform="rotate(20 553.7901,301.3795)">Logo</text>
	<text x="554.1569" y="302.4" fill="black" font-size="12" font-family="Arial" transform="rotate(30 554.1569,302.4)">Logo</text>
	<text x="554.31537" y="303.62103" fill="black" font-size="13" font-family="Arial" transform="rotate(40 554.31537,303.62103)">Logo</text>
	<text x="554.1995" y="305.00482" fill="black" font-size="14" font-family="Arial" transform="rotate(50 554.1995,305.00482)">Logo</text>
	<text x="553.75" y="306.49518" fill="black" font-size="15" font-family="Arial" transform="rotate(60 553.75,306.49518)">Logo</text>
	<text x="552.9186" y="308.0187" fill="black" font-size="16" font-family="Arial" transform="rotate(70 552.9186,308.0187)">Logo</text>
	<text x="551.6728" y="309.48697" fill="black" font-size="17" font-family="Arial" transform="rotate(80 551.6728,309.48697)">Logo</text>
	<text x="550" y="310.8" fill="black" font-size="18" font-family="Arial" transform="rotate(90 550,310.8)">Logo</text>
	<text x="547.91046" y="311.85052" fill="black" font-size="19" font-family="Arial" transform="rotate(100 547.91046,311.85052)">Logo</text>
	<text x="545.43976" y="312.52924" fill="black" font-size="20" font-family="Arial" transform="rotate(110 545.43976,312.52924)">Logo</text>
	<text x="542.65" y="312.73056" fill="black" font-size="21" font-family="Arial" transform="rotate(120 542.65,312.73056)">Logo</text>
	<text x="539.6297" y="312.35886" fill="black" font-size="22" font-family="Arial" transform="rotate(130 539.6297,312.35886)">Logo</text>
	<text x="536.49207" y="311.3345" fill="black" font-size="23" font-family="Arial" transform="rotate(140 536.49207,311.3345)">Logo</text>
	<text x="533.3723" y="309.6" fill="black" font-size="24" font-family="Arial" transform="rotate(150 533.3723,309.6)">Logo</text>
	<text x="530.4231" y="307.12543" fill="black" font-size="25" font-family="Arial" transform="rotate(160 530.4231,307.12543)">Logo</text>
	<text x="527.809" y="303.91287" fill="black" font-size="26" font-family="Arial" transform="rotate(170 527.809,303.91287)">Logo</text>
	<text x="525.7" y="300" fill="black" font-size="27" font-family="Arial" transform="rotate(180 525.7,300)">Logo</text>
	<text x="524.2637" y="295.462" fill="black" font-size="28" font-family="Arial" transform="rotate(-170 524.2637,295.462)">Logo</text>
	<text x="523.6573" y="290.41205" fill="black" font-size="29" font-family="Arial" transform="rotate(-160 523.6573,290.41205)">Logo</text>
	<text x="524.0192" y="285" fill="black" font-size="30" font-family="Arial" transform="rotate(-150 524.0192,285)">Logo</text>
	<text x="525.46106" y="279.4094" fill="black" font-size="31" font-family="Arial" transform="rotate(-140 525.46106,279.4094)">Logo</text>
	<text x="528.0595" y="273.85236" fill="black" font-size="32" font-family="Arial" transform="rotate(-130 528.0595,273.85236)">Logo</text>
	<text x="531.85" y="268.5633" fill="black" font-size="33" font-family="Arial" transform="rotate(-120 531.85,268.5633)">Logo</text>
	<text x="536.8208" y="263.79053" fill="black" font-size="34" font-family="Arial" transform="rotate(-110 536.8208,263.79053)">Logo</text>
	<text x="542.90936" y="259.78702" fill="black" font-size="35" font-family="Arial" transform="rotate(-100 542.90936,259.78702)">Logo</text>
	<text x="550" y="256.8" fill="black" font-size="36" font-family="Arial" transform="rotate(-90 550,256.8)">Logo</text>
	<text x="557.92413" y="255.05994" fill="black" font-size="37" font-family="Arial" transform="rotate(-80 557.92413,255.05994)">Logo</text>
	<text x="566.4625" y="254.76944" fill="black" font-size="38" font-family="Arial" transform="rotate(-70 566.4625,254.76944)">Logo</text>
	<text x="575.35" y="256.0925" fill="black" font-size="39" font-family="Arial" transform="rotate(-60 575.35,256.0925)">Logo</text>
	<text x="584.282" y="259.1443" fill="black" font-size="40" font-family="Arial" transform="rotate(-50 584.282,259.1443)">Logo</text>
	<text x="592.924" y="263.98242" fill="black" font-size="41" font-family="Arial" transform="rotate(-40 592.924,263.98242)">Logo</text>
	<text x="600.9223" y="270.59998" fill="black" font-size="42" font-family="Arial" transform="rotate(-30 600.9223,270.59998)">Logo</text>
	<text x="607.9164" y="278.9201" fill="black" font-size="43" font-family="Arial" transform="rotate(-20 607.9164,278.9201)">Logo</text>
	<text x="613.5529" y="288.79385" fill="black" font-size="44" font-family="Arial" transform="rotate(-10 613.5529,288.79385)">Logo</text>
	<text x="617.5" y="299.99997" fill="black" font-size="45" font-family="Arial" transform="rotate(-0 617.5,299.99997)">Logo</text>
	<text x="619.4618" y="312.24796" fill="black" font-size="46" font-family="Arial" transform="rotate(10 619.4618,312.24796)">Logo</text>
	<text x="619.19275" y="325.18405" fill="black" font-size="47" font-family="Arial" transform="rotate(20 619.19275,325.18405)">Logo</text>
	<text x="616.51074" y="338.39996" fill="black" font-size="48" font-family="Arial" transform="rotate(30 616.51074,338.39996)">Logo</text>
	<text x="611.30914" y="351.4444" fill="black" font-size="49" font-family="Arial" transform="rotate(40 611.30914,351.4444)">Logo</text>
	<text x="603.5657" y="363.837" fill="black" font-size="50" font-family="Arial" transform="rotate(50 603.5657,363.837)">Logo</text>
	<text x="593.35004" y="375.08438" fill="black" font-size="51" font-family="Arial" transform="rotate(60 593.35004,375.08438)">Logo</text>
	<text x="580.82745" y="384.6976" fill="black" font-size="52" font-family="Arial" transform="rotate(70 580.82745,384.6976)">Logo</text>
	<text x="566.25934" y="392.21082" fill="black" font-size="53" font-family="Arial" transform="rotate(80 566.25934,392.21082)">Logo</text>
	<text x="550.00006" y="397.2" fill="black" font-size="54" font-family="Arial" transform="rotate(90 550.00006,397.2)">Logo</text>
	<text x="532.49054" y="399.30145" fill="black" font-size="55" font-family="Arial" transform="rotate(100 532.49054,399.30145)">Logo</text>
	<text x="514.24756" y="398.22922" fill="black" font-size="56" font-family="Arial" transform="rotate(110 514.24756,398.22922)">Logo</text>
	<text x="495.85007" y="393.7906" fill="black" font-size="57" font-family="Arial" transform="rotate(120 495.85007,393.7906)">Logo</text>
	<text x="477.92215" y="385.89917" fill="black" font-size="58" font-family="Arial" transform="rotate(130 477.92215,385.89917)">Logo</text>
	<text x="461.11337" y="374.58484" fill="black" font-size="59" font-family="Arial" transform="rotate(140 461.11337,374.58484)">Logo</text>
	<text x="446.077" y="360.0001" fill="black" font-size="60" font-family="Arial" transform="rotate(150 446.077,360.0001)">Logo</text>
	<text x="433.44684" y="342.422" fill="black" font-size="61" font-family="Arial" transform="rotate(160 433.44684,342.422)">Logo</text>
	<text x="423.81332" y="322.2502" fill="black" font-size="62" font-family="Arial" transform="rotate(170 423.81332,322.2502)">Logo</text>
	<text x="417.7" y="300.00012" fill="black" font-size="63" font-family="Arial" transform="rotate(180 417.7,300.00012)">Logo</text>
	<text x="415.5409" y="276.29135" fill="black" font-size="64" font-family="Arial" transform="rotate(-170 415.5409,276.29135)">Logo</text>
	<text x="417.6599" y="251.83228" fill="black" font-size="65" font-family="Arial" transform="rotate(-160 417.6599,251.83228)">Logo</text>
	<text x="424.25305" y="227.40012" fill="black" font-size="66" font-family="Arial" transform="rotate(-150 424.25305,227.40012)">Logo</text>
	<text x="435.37415" y="203.81766" fill="black" font-size="67" font-family="Arial" transform="rotate(-140 435.37415,203.81766)">Logo</text>
	<text x="450.9249" y="181.92711" fill="black" font-size="68" font-family="Arial" transform="rotate(-130 450.9249,181.92711)">Logo</text>
	<text x="470.64984" y="162.56184" fill="black" font-size="69" font-family="Arial" transform="rotate(-120 470.64984,162.56184)">Logo</text>
	<text x="494.13654" y="146.51694" fill="black" font-size="70" font-family="Arial" transform="rotate(-110 494.13654,146.51694)">Logo</text>
	<text x="520.82117" y="134.5195" fill="black" font-size="71" font-family="Arial" transform="rotate(-100 520.82117,134.5195)">Logo</text>
	<text x="549.9998" y="127.2" fill="black" font-size="72" font-family="Arial" transform="rotate(-90 549.9998,127.2)">Logo</text>
	<text x="580.8455" y="125.06528" fill="black" font-size="73" font-family="Arial" transform="rotate(-80 580.8455,125.06528)">Logo</text>
	<text x="612.4299" y="128.47469" fill="black" font-size="74" font-family="Arial" transform="rotate(-70 612.4299,128.47469)">Logo</text>
	<text x="643.7498" y="137.62012" fill="black" font-size="75" font-family="Arial" transform="rotate(-60 643.7498,137.62012)">Logo</text>
	<text x="673.7579" y="152.51076" fill="black" font-size="76" font-family="Arial" transform="rotate(-50 673.7579,152.51076)">Logo</text>
	<text x="701.39575" y="172.96356" fill="black" font-size="77" font-family="Arial" transform="rotate(-40 701.39575,172.96356)">Logo</text>
	<text x="725.6298" y="198.59978" fill="black" font-size="78" font-family="Arial" transform="rotate(-30 725.6298,198.59978)">Logo</text>
	<text x="745.4873" y="228.84818" fill="black" font-size="79" font-family="Arial" transform="rotate(-20 745.4873,228.84818)">Logo</text>
	<text x="760.0923" y="262.9548" fill="black" font-size="80" font-family="Arial" transform="rotate(-10 760.0923,262.9548)">Logo</text>
	<text x="768.7" y="299.99976" fill="black" font-size="81" font-family="Arial" transform="rotate(-0 768.7,299.99976)">Logo</text>
	<text x="770.7283" y="338.9201" fill="black" font-size="82" font-family="Arial" transform="rotate(10 770.7283,338.9201)">Logo</text>
	<text x="765.78485" y="378.53897" fill="black" font-size="83" font-family="Arial" transform="rotate(20 765.78485,378.53897)">Logo</text>
	<text x="753.68933" y="417.5998" fill="black" font-size="84" font-family="Arial" transform="rotate(30 753.68933,417.5998)">Logo</text>
	<text x="734.4892" y="454.8045" fill="black" font-size="85" font-family="Arial" transform="rotate(40 734.4892,454.8045)">Logo</text>
	<text x="708.46875" y="488.85535" fill="black" font-size="86" font-family="Arial" transform="rotate(50 708.46875,488.85535)">Logo</text>
	<text x="676.1502" y="518.4981" fill="black" font-size="87" font-family="Arial" transform="rotate(60 676.1502,518.4981)">Logo</text>
	<text x="638.28705" y="542.5659" fill="black" font-size="88" font-family="Arial" transform="rotate(70 638.28705,542.5659)">Logo</text>
	<text x="595.8492" y="560.02203" fill="black" font-size="89" font-family="Arial" transform="rotate(80 595.8492,560.02203)">Logo</text>
	<text x="550.0003" y="570" fill="black" font-size="90" font-family="Arial" transform="rotate(90 550.0003,570)">Logo</text>
	<text x="502.06763" y="571.83984" fill="black" font-size="91" font-family="Arial" transform="rotate(100 502.06763,571.83984)">Logo</text>
	<text x="453.50504" y="565.1188" fill="black" font-size="92" font-family="Arial" transform="rotate(110 453.50504,565.1188)">Logo</text>
	<text x="405.85028" y="549.67535" fill="black" font-size="93" font-family="Arial" transform="rotate(120 405.85028,549.67535)">Logo</text>
	<text x="360.6779" y="525.6259" fill="black" font-size="94" font-family="Arial" transform="rotate(130 360.6779,525.6259)">Logo</text>
	<text x="319.54852" y="493.37228" fill="black" font-size="95" font-family="Arial" transform="rotate(140 319.54852,493.37228)">Logo</text>
	<text x="283.95718" y="453.6004" fill="black" font-size="96" font-family="Arial" transform="rotate(150 283.95718,453.6004)">Logo</text>
	<text x="255.28122" y="407.26935" fill="black" font-size="97" font-family="Arial" transform="rotate(160 255.28122,407.26935)">Logo</text>
	<text x="234.73029" y="355.59103" fill="black" font-size="98" font-family="Arial" transform="rotate(170 234.73029,355.59103)">Logo</text>
	<text x="223.29999" y="300.0005" fill="black" font-size="99" font-family="Arial" transform="rotate(180 223.29999,300.0005)">Logo</text>
	<text x="221.73068" y="242.11778" fill="black" font-size="100" font-family="Arial" transform="rotate(-170 221.73068,242.11778)">Logo</text>
	<text x="230.47302" y="183.70224" fill="black" font-size="101" font-family="Arial" transform="rotate(-160 230.47302,183.70224)">Logo</text>
	<text x="249.66217" y="126.60048" fill="black" font-size="102" font-family="Arial" transform="rotate(-150 249.66217,126.60048)">Logo</text>
	<text x="279.10083" y="72.68933" fill="black" font-size="103" font-family="Arial" transform="rotate(-140 279.10083,72.68933)">Logo</text>
	<text x="318.25323" y="23.815857" fill="black" font-size="104" font-family="Arial" transform="rotate(-130 318.25323,23.815857)">Logo</text>
	<text x="366.2495" y="-18.264008" fill="black" font-size="105" font-family="Arial" transform="rotate(-120 366.2495,-18.264008)">Logo</text>
	<text x="421.90152" y="-51.945953" fill="black" font-size="106" font-family="Arial" transform="rotate(-110 421.90152,-51.945953)">Logo</text>
	<text x="483.7295" y="-75.8353" fill="black" font-size="107" font-family="Arial" transform="rotate(-100 483.7295,-75.8353)">Logo</text>
	<text x="549.9994" y="-88.79993" fill="black" font-size="108" font-family="Arial" transform="rotate(-90 549.9994,-88.79993)">Logo</text>
	<text x="618.76984" y="-90.01672" fill="black" font-size="109" font-family="Arial" transform="rotate(-80 618.76984,-90.01672)">Logo</text>
	<text x="687.9475" y="-79.00955" fill="black" font-size="110" font-family="Arial" transform="rotate(-70 687.9475,-79.00955)">Logo</text>
	<text x="755.3494" y="-55.67694" fill="black" font-size="111" font-family="Arial" transform="rotate(-60 755.3494,-55.67694)">Logo</text>
	<text x="818.7704" y="-20.309113" fill="black" font-size="112" font-family="Arial" transform="rotate(-50 818.7704,-20.309113)">Logo</text>
	<text x="876.0536" y="26.407684" fill="black" font-size="113" font-family="Arial" transform="rotate(-40 876.0536,26.407684)">Logo</text>
	<text x="925.16187" y="83.39943" fill="black" font-size="114" font-family="Arial" transform="rotate(-30 925.16187,83.39943)">Logo</text>
	<text x="964.24756" y="149.22551" fill="black" font-size="115" font-family="Arial" transform="rotate(-20 964.24756,149.22551)">Logo</text>
	<text x="991.719" y="222.11237" fill="black" font-size="116" font-family="Arial" transform="rotate(-10 991.719,222.11237)">Logo</text>
	<text x="1006.3" y="299.99933" fill="black" font-size="117" font-family="Arial" transform="rotate(-0 1006.3,299.99933)">Logo</text>
	<text x="1007.0823" y="380.59525" fill="black" font-size="118" font-family="Arial" transform="rotate(10 1007.0823,380.59525)">Logo</text>
	<text x="993.5665" y="461.44427" fill="black" font-size="119" font-family="Arial" transform="rotate(20 993.5665,461.44427)">Logo</text>
	<text x="965.69257" y="539.9994" fill="black" font-size="120" font-family="Arial" transform="rotate(30 965.69257,539.9994)">Logo</text>
	<text x="923.8557" y="613.70123" fill="black" font-size="121" font-family="Arial" transform="rotate(40 923.8557,613.70123)">Logo</text>
	<text x="868.90894" y="680.0597" fill="black" font-size="122" font-family="Arial" transform="rotate(50 868.90894,680.0597)">Logo</text>
	<text x="802.15063" y="736.7362" fill="black" font-size="123" font-family="Arial" transform="rotate(60 802.15063,736.7362)">Logo</text>
	<text x="725.2975" y="781.6235" fill="black" font-size="124" font-family="Arial" transform="rotate(70 725.2975,781.6235)">Logo</text>
	<text x="640.44257" y="812.92053" fill="black" font-size="125" font-family="Arial" transform="rotate(80 640.44257,812.92053)">Logo</text>
	<text x="550.00085" y="829.2" fill="black" font-size="126" font-family="Arial" transform="rotate(90 550.00085,829.2)">Logo</text>
	<text x="456.64185" y="829.46564" fill="black" font-size="127" font-family="Arial" transform="rotate(100 456.64185,829.46564)">Logo</text>
	<text x="363.21228" y="813.1978" fill="black" font-size="128" font-family="Arial" transform="rotate(110 363.21228,813.1978)">Logo</text>
	<text x="272.65076" y="780.38477" fill="black" font-size="129" font-family="Arial" transform="rotate(120 272.65076,780.38477)">Logo</text>
	<text x="187.89706" y="731.53894" fill="black" font-size="130" font-family="Arial" transform="rotate(130 187.89706,731.53894)">Logo</text>
	<text x="111.79767" y="667.69666" fill="black" font-size="131" font-family="Arial" transform="rotate(140 111.79767,667.69666)">Logo</text>
	<text x="47.01294" y="590.4009" fill="black" font-size="132" font-family="Arial" transform="rotate(150 47.01294,590.4009)">Logo</text>
	<text x="-4.0737915" y="501.66748" fill="black" font-size="133" font-family="Arial" transform="rotate(160 -4.0737915,501.66748)">Logo</text>
	<text x="-39.440063" y="403.93527" fill="black" font-size="134" font-family="Arial" transform="rotate(170 -39.440063,403.93527)">Logo</text>
	<text x="-57.5" y="300.0011" fill="black" font-size="135" font-family="Arial" transform="rotate(180 -57.5,300.0011)">Logo</text>
	<text x="-57.166992" y="192.94124" fill="black" font-size="136" font-family="Arial" transform="rotate(-170 -57.166992,192.94124)">Logo</text>
	<text x="-37.903442" y="86.021866" fill="black" font-size="137" font-family="Arial" transform="rotate(-160 -37.903442,86.021866)">Logo</text>
	<text x="0.24645996" y="-17.398987" fill="black" font-size="138" font-family="Arial" transform="rotate(-150 0.24645996,-17.398987)">Logo</text>
	<text x="56.641052" y="-113.97571" fill="black" font-size="139" font-family="Arial" transform="rotate(-140 56.641052,-113.97571)">Logo</text>
	<text x="130.0445" y="-200.48154" fill="black" font-size="140" font-family="Arial" transform="rotate(-130 130.0445,-200.48154)">Logo</text>
	<text x="218.64883" y="-273.91443" fill="black" font-size="141" font-family="Arial" transform="rotate(-120 218.64883,-273.91443)">Logo</text>
	<text x="320.1156" y="-331.59833" fill="black" font-size="142" font-family="Arial" transform="rotate(-110 320.1156,-331.59833)">Logo</text>
	<text x="431.63425" y="-371.2776" fill="black" font-size="143" font-family="Arial" transform="rotate(-100 431.63425,-371.2776)">Logo</text>
</svg>