<svg width="1100" height="600" xmlns="http://www.w3.org/2000/svg">
	<rect width="100%" height="100%" style="fill:rgb(255,255,255);stroke-width:10;stroke:rgb(0,0,0)" />
	<line x1="550" y1="300" x2="550" y2="297" style="stroke:black;stroke-width:1" />
	<line x1="650" y1="300" x2="650" y2="300" style="stroke:black;stroke-width:1" />
	<line x1="550" y1="297" x2="550" y2="294" style="stroke:black;stroke-width:1" />
	<line x1="650" y1="300" x2="650" y2="298" style="stroke:black;stroke-width:1" />
	<line x1="550" y1="294" x2="550" y2="291" style="stroke:black;stroke-width:1" />
	<line x1="650" y1="298" x2="650" y2="298" style="stroke:black;stroke-width:1" />
	<line x1="550" y1="291" x2="550" y2="288" style="stroke:black;stroke-width:1" />
	<line x1="650" y1="298" x2="650" y2="296" style="stroke:black;stroke-width:1" />
	<line x1="550" y1="288" x2="550" y2="286" style="stroke:black;stroke-width:1" />
	<line x1="650" y1="296" x2="650" y2="296" style="stroke:black;stroke-width:1" />
	<line x1="550" y1="286" x2="550" y2="283" style="stroke:black;stroke-width:1" />
	<line x1="650" y1="296" x2="650" y2="294" style="stroke:black;stroke-width:1" />
	<line x1="550" y1="283" x2="550" y2="280" style="stroke:black;stroke-width:1" />
	<line x1="650" y1="294" x2="650" y2="294" style="stroke:black;stroke-width:1" />
	<line x1="550" y1="280" x2="550" y2="277" style="stroke:black;stroke-width:1" />
	<line x1="650" y1="294" x2="650" y2="294" style="stroke:black;stroke-width:1" />
	<line x1="550" y1="277" x2="550" y2="277" style="stroke:black;stroke-width:1" />
	<line x1="650" y1="294" x2="650" y2="291" style="stroke:black;stroke-width:1" />
	<line x1="550" y1="277" x2="550" y2="277" style="stroke:black;stroke-width:1" />
	<line x1="650" y1="291" x2="650" y2="289" style="stroke:black;stroke-width:1" />
	<line x1="550" y1="277" x2="550" y2="275" style="stroke:black;stroke-width:1" />
	<line x1="650" y1="289" x2="650" y2="287" style="stroke:black;stroke-width:1" />
	<line x1="550" y1="275" x2="550" y2="274" style="stroke:black;stroke-width:1" />
	<line x1="650" y1="287" x2="650" y2="284" style="stroke:black;stroke-width:1" />
	<line x1="550" y1="274" x2="550" y2="272" style="stroke:black;stroke-width:1" />
	<line x1="650" y1="284" x2="650" y2="281" style="stroke:black;stroke-width:1" />
	<line x1="550" y1="272" x2="550" y2="271" style="stroke:black;stroke-width:1" />
	<line x1="650" y1="281" x2="650" y2="278" style="stroke:black;stroke-width:1" />
	<line x1="550" y1="271" x2="550" y2="270" style="stroke:black;stroke-width:1" />
	<line x1="650" y1="278" x2="650" y2="278" style="stroke:black;stroke-width:1" />
	<line x1="550" y1="270" x2="550" y2="267" style="stroke:black;stroke-width:1" />
	<line x1="650" y1="278" x2="650" y2="278" style="stroke:black;stroke-width:1" />
	<line x1="550" y1="267" x2="550" y2="264" style="stroke:black;stroke-width:1" />
	<line x1="650" y1="278" x2="650" y2="277" style="stroke:black;stroke-width:1" />
	<line x1="550" y1="264" x2="550" y2="263" style="stroke:black;stroke-width:1" />
	<line x1="650" y1="277" x2="650" y2="277" style="stroke:black;stroke-width:1" />
	<line x1="550" y1="263" x2="550" y2="261" style="stroke:black;stroke-width:1" />
	<line x1="650" y1="277" x2="650" y2="274" style="stroke:black;stroke-width:1" />
	<line x1="550" y1="261" x2="550" y2="258" style="stroke:black;stroke-width:1" />
	<line x1="650" y1="274" x2="650" y2="272" style="stroke:black;stroke-width:1" />
	<line x1="550" y1="258" x2="550" y2="257" style="stroke:black;stroke-width:1" />
	<line x1="650" y1="272" x2="650" y2="269" style="stroke:black;stroke-width:1" />
	<line x1="550" y1="257" x2="550" y2="254" style="stroke:black;stroke-width:1" />
	<line x1="650" y1="269" x2="650" y2="269" style="stroke:black;stroke-width:1" />
	<line x1="550" y1="254" x2="550" y2="251" style="stroke:black;stroke-width:1" />
	<line x1="650" y1="269" x2="650" y2="267" style="stroke:black;stroke-width:1" />
	<line x1="550" y1="251" x2="550" y2="251" style="stroke:black;stroke-width:1" />
	<line x1="650" y1="267" x2="650" y2="264" style="stroke:black;stroke-width:1" />
	<line x1="550" y1="251" x2="550" y2="250" style="stroke:black;stroke-width:1" />
	<line x1="650" y1="264" x2="650" y2="261" style="stroke:black;stroke-width:1" />
	<line x1="550" y1="250" x2="550" y2="249" style="stroke:black;stroke-width:1" />
	<line x1="650" y1="261" x2="650" y2="260" style="stroke:black;stroke-width:1" />
	<line x1="550" y1="249" x2="550" y2="247" style="stroke:black;stroke-width:1" />
	<line x1="650" y1="260" x2="650" y2="258" style="stroke:black;stroke-width:1" />
	<line x1="550" y1="247" x2="550" y2="244" style="stroke:black;stroke-width:1" />
	<line x1="650" y1="258" x2="650" y2="255" style="stroke:black;stroke-width:1" />
	<line x1="550" y1="244" x2="550" y2="243" style="stroke:black;stroke-width:1" />
	<line x1="650" y1="255" x2="650" y2="255" style="stroke:black;stroke-width:1" />
	<line x1="550" y1="243" x2="550" y2="242" style="stroke:black;stroke-width:1" />
	<line x1="650" y1="255" x2="650" y2="252" style="stroke:black;stroke-width:1" />
	<line x1="550" y1="242" x2="550" y2="241" style="stroke:black;stroke-width:1" />
	<line x1="650" y1="252" x2="650" y2="252" style="stroke:black;stroke-width:1" />
	<line x1="550" y1="241" x2="550" y2="240" style="stroke:black;stroke-width:1" />
	<line x1="650" y1="252" x2="650" y2="249" style="stroke:black;stroke-width:1" />
	<line x1="550" y1="240" x2="550" y2="238" style="stroke:black;stroke-width:1" />
	<line x1="650" y1="249" x2="650" y2="248" style="stroke:black;stroke-width:1" />
	<line x1="550" y1="238" x2="550" y2="236" style="stroke:black;stroke-width:1" />
	<line x1="650" y1="248" x2="650" y2="245" style="stroke:black;stroke-width:1" />
	<line x1="550" y1="236" x2="550" y2="234" style="stroke:black;stroke-width:1" />
	<line x1="650" y1="245" x2="650" y2="242" style="stroke:black;stroke-width:1" />
	<line x1="550" y1="234" x2="550" y2="234" style="stroke:black;stroke-width:1" />
	<line x1="650" y1="242" x2="650" y2="241" style="stroke:black;stroke-width:1" />
	<line x1="550" y1="234" x2="550" y2="234" style="stroke:black;stroke-width:1" />
	<line x1="650" y1="241" x2="650" y2="240" style="stroke:black;stroke-width:1" />
	<line x1="550" y1="234" x2="550" y2="231" style="stroke:black;stroke-width:1" />
	<line x1="650" y1="240" x2="650" y2="238" style="stroke:black;stroke-width:1" />
	<line x1="550" y1="231" x2="550" y2="228" style="stroke:black;stroke-width:1" />
	<line x1="650" y1="238" x2="650" y2="236" style="stroke:black;stroke-width:1" />
	<line x1="550" y1="228" x2="550" y2="228" style="stroke:black;stroke-width:1" />
	<line x1="650" y1="236" x2="650" y2="235" style="stroke:black;stroke-width:1" />
	<line x1="550" y1="228" x2="550" y2="225" style="stroke:black;stroke-width:1" />
	<line x1="650" y1="235" x2="650" y2="233" style="stroke:black;stroke-width:1" />
	<line x1="550" y1="225" x2="550" y2="225" style="stroke:black;stroke-width:1" />
	<line x1="650" y1="233" x2="650" y2="230" style="stroke:black;stroke-width:1" />
	<line x1="550" y1="225" x2="550" y2="223" style="stroke:black;stroke-width:1" />
	<line x1="650" y1="230" x2="650" y2="230" style="stroke:black;stroke-width:1" />
	<line x1="550" y1="223" x2="550" y2="222" style="stroke:black;stroke-width:1" />
	<line x1="650" y1="230" x2="650" y2="227" style="stroke:black;stroke-width:1" />
	<line x1="550" y1="222" x2="550" y2="222" style="stroke:black;stroke-width:1" />
	<line x1="650" y1="227" x2="650" y2="225" style="stroke:black;stroke-width:1" />
	<line x1="550" y1="222" x2="550" y2="221" style="stroke:black;stroke-width:1" />
	<line x1="650" y1="225" x2="650" y2="225" style="stroke:black;stroke-width:1" />
	<line x1="550" y1="221" x2="550" y2="218" style="stroke:black;stroke-width:1" />
	<line x1="650" y1="225" x2="650" y2="223" style="stroke:black;stroke-width:1" />
	<line x1="550" y1="218" x2="550" y2="216" style="stroke:black;stroke-width:1" />
	<line x1="650" y1="223" x2="650" y2="220" style="stroke:black;stroke-width:1" />
	<line x1="550" y1="216" x2="550" y2="214" style="stroke:black;stroke-width:1" />
	<line x1="650" y1="220" x2="650" y2="219" style="stroke:black;stroke-width:1" />
	<line x1="550" y1="214" x2="550" y2="211" style="stroke:black;stroke-width:1" />
	<line x1="650" y1="219" x2="650" y2="217" style="stroke:black;stroke-width:1" />
	<line x1="550" y1="211" x2="550" y2="208" style="stroke:black;stroke-width:1" />
	<line x1="650" y1="217" x2="650" y2="214" style="stroke:black;stroke-width:1" />
	<line x1="550" y1="208" x2="550" y2="206" style="stroke:black;stroke-width:1" />
	<line x1="650" y1="214" x2="650" y2="212" style="stroke:black;stroke-width:1" />
	<line x1="550" y1="206" x2="550" y2="205" style="stroke:black;stroke-width:1" />
	<line x1="650" y1="212" x2="650" y2="212" style="stroke:black;stroke-width:1" />
	<line x1="550" y1="205" x2="550" y2="205" style="stroke:black;stroke-width:1" />
	<line x1="650" y1="212" x2="650" y2="212" style="stroke:black;stroke-width:1" />
	<line x1="550" y1="205" x2="550" y2="205" style="stroke:black;stroke-width:1" />
	<line x1="650" y1="212" x2="650" y2="211" style="stroke:black;stroke-width:1" />
	<line x1="550" y1="205" x2="550" y2="203" style="stroke:black;stroke-width:1" />
	<line x1="650" y1="211" x2="650" y2="210" style="stroke:black;stroke-width:1" />
	<line x1="550" y1="203" x2="550" y2="202" style="stroke:black;stroke-width:1" />
	<line x1="650" y1="210" x2="650" y2="208" style="stroke:black;stroke-width:1" />
	<line x1="550" y1="202" x2="550" y2="201" style="stroke:black;stroke-width:1" />
	<line x1="650" y1="208" x2="650" y2="206" style="stroke:black;stroke-width:1" />
	<line x1="550" y1="201" x2="550" y2="200" style="stroke:black;stroke-width:1" />
	<line x1="650" y1="206" x2="650" y2="204" style="stroke:black;stroke-width:1" />
	<line x1="550" y1="200" x2="550" y2="200" style="stroke:black;stroke-width:1" />
	<line x1="650" y1="204" x2="650" y2="203" style="stroke:black;stroke-width:1" />
	<line x1="550" y1="200" x2="550" y2="200" style="stroke:black;stroke-width:1" />
	<line x1="650" y1="203" x2="650" y2="202" style="stroke:black;stroke-width:1" />
	<line x1="550" y1="200" x2="550" y2="199" style="stroke:black;stroke-width:1" />
	<line x1="650" y1="202" x2="650" y2="200" style="stroke:black;stroke-width:1" />
	<line x1="550" y1="199" x2="550" y2="199" style="stroke:black;stroke-width:1" />
	<line x1="650" y1="200" x2="650" y2="200" style="stroke:black;stroke-width:1" />
	<line x1="550" y1="199" x2="550" y2="199" style="stroke:black;stroke-width:1" />
	<line x1="650" y1="200" x2="650" y2="197" style="stroke:black;stroke-width:1" />
	<line x1="550" y1="199" x2="550" y2="198" style="stroke:black;stroke-width:1" />
	<line x1="650" y1="197" x2="650" y2="194" style="stroke:black;stroke-width:1" />
	<line x1="550" y1="198" x2="550" y2="197" style="stroke:black;stroke-width:1" />
	<line x1="650" y1="194" x2="650" y2="193" style="stroke:black;stroke-width:1" />
	<line x1="550" y1="197" x2="550" y2="197" style="stroke:black;stroke-width:1" />
	<line x1="650" y1="193" x2="650" y2="192" style="stroke:black;stroke-width:1" />
	<line x1="550" y1="197" x2="550" y2="195" style="stroke:black;stroke-width:1" />
	<line x1="650" y1="192" x2="650" y2="192" style="stroke:black;stroke-width:1" />
	<line x1="550" y1="195" x2="550" y2="194" style="stroke:black;stroke-width:1" />
	<line x1="650" y1="192" x2="650" y2="190" style="stroke:black;stroke-width:1" />
	<line x1="550" y1="194" x2="550" y2="192" style="stroke:black;stroke-width:1" />
	<line x1="650" y1="190" x2="650" y2="188" style="stroke:black;stroke-width:1" />
	<line x1="550" y1="192" x2="550" y2="192" style="stroke:black;stroke-width:1" />
	<line x1="650" y1="188" x2="650" y2="185" style="stroke:black;stroke-width:1" />
	<line x1="550" y1="192" x2="550" y2="192" style="stroke:black;stroke-width:1" />
	<line x1="650" y1="185" x2="650" y2="184" style="stroke:black;stroke-width:1" />
	<line x1="550" y1="192" x2="550" y2="190" style="stroke:black;stroke-width:1" />
	<line x1="650" y1="184" x2="650" y2="182" style="stroke:black;stroke-width:1" />
	<line x1="550" y1="190" x2="550" y2="189" style="stroke:black;stroke-width:1" />
	<line x1="650" y1="182" x2="650" y2="181" style="stroke:black;stroke-width:1" />
	<line x1="550" y1="189" x2="550" y2="186" style="stroke:black;stroke-width:1" />
	<line x1="650" y1="181" x2="650" y2="178" style="stroke:black;stroke-width:1" />
	<line x1="550" y1="186" x2="550" y2="183" style="stroke:black;stroke-width:1" />
	<line x1="650" y1="178" x2="650" y2="178" style="stroke:black;stroke-width:1" />
	<line x1="550" y1="183" x2="550" y2="183" style="stroke:black;stroke-width:1" />
	<line x1="650" y1="178" x2="650" y2="177" style="stroke:black;stroke-width:1" />
	<line x1="550" y1="183" x2="550" y2="180" style="stroke:black;stroke-width:1" />
	<line x1="650" y1="177" x2="650" y2="174" style="stroke:black;stroke-width:1" />
	<line x1="550" y1="180" x2="550" y2="179" style="stroke:black;stroke-width:1" />
	<line x1="650" y1="174" x2="650" y2="174" style="stroke:black;stroke-width:1" />
	<line x1="550" y1="179" x2="550" y2="177" style="stroke:black;stroke-width:1" />
	<line x1="650" y1="174" x2="650" y2="172" style="stroke:black;stroke-width:1" />
	<line x1="550" y1="177" x2="550" y2="175" style="stroke:black;stroke-width:1" />
	<line x1="650" y1="172" x2="650" y2="172" style="stroke:black;stroke-width:1" />
	<line x1="550" y1="175" x2="550" y2="173" style="stroke:black;stroke-width:1" />
	<line x1="650" y1="172" x2="650" y2="171" style="stroke:black;stroke-width:1" />
	<line x1="550" y1="173" x2="550" y2="171" style="stroke:black;stroke-width:1" />
	<line x1="650" y1="171" x2="650" y2="168" style="stroke:black;stroke-width:1" />
	<line x1="550" y1="171" x2="550" y2="170" style="stroke:black;stroke-width:1" />
	<line x1="650" y1="168" x2="650" y2="166" style="stroke:black;stroke-width:1" />
	<line x1="550" y1="170" x2="550" y2="169" style="stroke:black;stroke-width:1" />
	<line x1="650" y1="166" x2="650" y2="166" style="stroke:black;stroke-width:1" />
	<line x1="550" y1="169" x2="550" y2="166" style="stroke:black;stroke-width:1" />
	<line x1="650" y1="166" x2="650" y2="164" style="stroke:black;stroke-width:1" />
	<line x1="550" y1="166" x2="550" y2="165" style="stroke:black;stroke-width:1" />
	<line x1="650" y1="164" x2="650" y2="161" style="stroke:black;stroke-width:1" />
	<line x1="550" y1="165" x2="550" y2="164" style="stroke:black;stroke-width:1" />
	<line x1="650" y1="161" x2="650" y2="161" style="stroke:black;stroke-width:1" />
	<line x1="550" y1="164" x2="550" y2="161" style="stroke:black;stroke-width:1" />
	<line x1="650" y1="161" x2="650" y2="159" style="stroke:black;stroke-width:1" />
	<line x1="550" y1="161" x2="550" y2="161" style="stroke:black;stroke-width:1" />
	<line x1="650" y1="159" x2="650" y2="157" style="stroke:black;stroke-width:1" />
	<line x1="550" y1="161" x2="550" y2="159" style="stroke:black;stroke-width:1" />
	<line x1="650" y1="157" x2="650" y2="156" style="stroke:black;stroke-width:1" />
	<line x1="550" y1="159" x2="550" y2="156" style="stroke:black;stroke-width:1" />
	<line x1="650" y1="156" x2="650" y2="153" style="stroke:black;stroke-width:1" />
	<line x1="550" y1="156" x2="550" y2="156" style="stroke:black;stroke-width:1" />
	<line x1="650" y1="153" x2="650" y2="152" style="stroke:black;stroke-width:1" />
	<line x1="550" y1="156" x2="550" y2="153" style="stroke:black;stroke-width:1" />
	<line x1="650" y1="152" x2="650" y2="151" style="stroke:black;stroke-width:1" />
	<line x1="550" y1="153" x2="550" y2="150" style="stroke:black;stroke-width:1" />
	<line x1="650" y1="151" x2="650" y2="148" style="stroke:black;stroke-width:1" />
	<line x1="550" y1="150" x2="550" y2="150" style="stroke:black;stroke-width:1" />
	<line x1="650" y1="148" x2="650" y2="145" style="stroke:black;stroke-width:1" />
	<line x1="550" y1="150" x2="550" y2="147" style="stroke:black;stroke-width:1" />
	<line x1="650" y1="145" x2="650" y2="142" style="stroke:black;stroke-width:1" />
	<line x1="550" y1="147" x2="550" y2="146" style="stroke:black;stroke-width:1" />
	<line x1="650" y1="142" x2="650" y2="140" style="stroke:black;stroke-width:1" />
	<line x1="550" y1="146" x2="550" y2="144" style="stroke:black;stroke-width:1" />
	<line x1="650" y1="140" x2="650" y2="138" style="stroke:black;stroke-width:1" />
	<line x1="550" y1="144" x2="550" y2="143" style="stroke:black;stroke-width:1" />
	<line x1="650" y1="138" x2="650" y2="137" style="stroke:black;stroke-width:1" />
</svg>